<svg width="499" height="150" fill="none" xmlns="http://www.w3.org/2000/svg"><path fill-rule="evenodd" clip-rule="evenodd" d="M174.201 45.73h324.754v-2.27H174.201v2.27ZM145.737 5.035l-2.87 2.844c-1.816-1.918-3.933-2.877-6.352-2.877-2.108 0-3.872.698-5.296 2.093-1.423 1.396-2.133 3.09-2.133 5.087 0 2.063.737 3.813 2.213 5.246 1.477 1.434 3.298 2.15 5.463 2.15 1.408 0 2.595-.293 3.56-.885.967-.589 1.747-1.514 2.339-2.77h-6.212V12.09h10.79l.03.902c0 1.873-.487 3.647-1.458 5.326-.972 1.677-2.23 2.958-3.775 3.842-1.546.88-3.358 1.322-5.437 1.322-2.226 0-4.21-.482-5.955-1.447-1.744-.965-3.124-2.341-4.139-4.126a11.493 11.493 0 0 1-1.523-5.779c0-2.832.936-5.296 2.812-7.394 2.226-2.493 5.121-3.74 8.688-3.74 1.866 0 3.609.346 5.232 1.035 1.371.583 2.711 1.586 4.023 3.003Zm18.989 8.001c-.265-.867-.785-1.574-1.561-2.118-.776-.545-1.677-.816-2.702-.816-1.114 0-2.09.304-2.928.915-.528.382-1.017 1.055-1.466 2.02h8.657Zm3.965 3.109h-12.795c.184 1.134.676 2.035 1.476 2.703.801.67 1.821 1.004 3.064 1.004 1.484 0 2.76-.523 3.827-1.568l3.347 1.58c-.834 1.189-1.834 2.07-3.001 2.64-1.164.57-2.549.855-4.15.855-2.486 0-4.512-.784-6.074-2.353-1.564-1.568-2.345-3.533-2.345-5.893 0-2.417.78-4.425 2.342-6.023 1.561-1.597 3.52-2.397 5.874-2.397 2.5 0 4.533.797 6.099 2.39 1.567 1.59 2.35 3.695 2.35 6.307l-.014.755Zm5.442-9.054h3.978V8.93c.683-.75 1.44-1.31 2.272-1.68a6.646 6.646 0 0 1 2.725-.556c.993 0 1.889.245 2.688.731.797.489 1.439 1.201 1.926 2.138.632-.937 1.409-1.65 2.329-2.138a6.366 6.366 0 0 1 3.017-.73c1.129 0 2.124.262 2.981.787.856.526 1.471 1.21 1.849 2.056.373.846.561 2.22.561 4.124v9.3h-3.981v-8.036c0-1.796-.226-3.01-.677-3.646-.451-.636-1.129-.954-2.031-.954a3.1 3.1 0 0 0-1.848.583c-.544.387-.95.924-1.215 1.609-.265.683-.397 1.783-.397 3.296v7.149h-3.98V15.29c0-1.417-.106-2.443-.315-3.077-.21-.637-.527-1.11-.946-1.42-.421-.312-.929-.467-1.525-.467-.665 0-1.27.197-1.813.59-.542.393-.946.943-1.216 1.653-.268.708-.404 1.823-.404 3.347v7.047h-3.978V7.092Zm42.233 5.945c-.265-.867-.784-1.574-1.561-2.118-.775-.545-1.675-.816-2.701-.816-1.114 0-2.09.304-2.929.915-.527.382-1.016 1.055-1.466 2.02h8.657Zm3.965 3.109h-12.795c.184 1.134.675 2.035 1.478 2.703.8.67 1.82 1.004 3.062 1.004 1.485 0 2.76-.523 3.827-1.568l3.349 1.58c-.836 1.189-1.838 2.07-3.002 2.64-1.164.57-2.549.855-4.151.855-2.486 0-4.51-.784-6.073-2.353-1.565-1.568-2.347-3.533-2.347-5.893 0-2.417.781-4.425 2.344-6.023 1.561-1.597 3.519-2.397 5.873-2.397 2.5 0 4.534.797 6.1 2.39 1.566 1.59 2.351 3.695 2.351 6.307l-.016.755Zm5.018 6.817h3.98V7.092h-3.98v15.87ZM227.332.576c.697 0 1.298.251 1.795.755a2.51 2.51 0 0 1 .749 1.833c0 .707-.246 1.31-.741 1.81-.493.5-1.085.749-1.773.749a2.44 2.44 0 0 1-1.812-.764c-.499-.507-.748-1.126-.748-1.854 0-.698.248-1.295.742-1.79a2.438 2.438 0 0 1 1.788-.74Zm7.86 6.515h3.98v1.624c.9-.755 1.718-1.283 2.45-1.577a5.96 5.96 0 0 1 2.246-.445c1.569 0 2.902.55 3.997 1.647.921.934 1.381 2.315 1.381 4.142v10.48h-3.93V16.01c0-1.896-.085-3.154-.254-3.775-.17-.622-.465-1.096-.885-1.422-.422-.325-.943-.488-1.563-.488-.805 0-1.493.27-2.07.809-.577.54-.976 1.285-1.199 2.237-.113.496-.173 1.57-.173 3.221v6.37h-3.98V7.092Zm27.664 3.234c-1.229 0-2.249.437-3.061 1.311-.813.873-1.219 1.993-1.219 3.361 0 1.377.412 2.51 1.24 3.398.827.89 1.845 1.332 3.055 1.332 1.247 0 2.281-.436 3.103-1.31.822-.873 1.235-2.019 1.235-3.434 0-1.386-.413-2.51-1.235-3.37-.822-.858-1.861-1.288-3.118-1.288Zm4.177-9.352h3.98v21.989h-3.98v-1.676c-.775.734-1.554 1.263-2.331 1.587a6.56 6.56 0 0 1-2.537.486c-2.045 0-3.813-.794-5.305-2.382-1.493-1.588-2.239-3.561-2.239-5.922 0-2.447.721-4.453 2.165-6.016 1.445-1.563 3.2-2.346 5.262-2.346a6.76 6.76 0 0 1 2.675.534c.833.356 1.603.889 2.31 1.6V.973ZM289.2 13.036c-.264-.867-.783-1.574-1.558-2.118-.776-.545-1.679-.816-2.702-.816-1.114 0-2.09.304-2.929.915-.528.382-1.016 1.055-1.467 2.02h8.656Zm3.968 3.109h-12.797c.184 1.134.677 2.035 1.476 2.703.8.67 1.822 1.004 3.064 1.004 1.485 0 2.759-.523 3.827-1.568l3.349 1.58c-.836 1.189-1.836 2.07-3.001 2.64-1.165.57-2.55.855-4.152.855-2.484 0-4.51-.784-6.073-2.353-1.565-1.568-2.346-3.533-2.346-5.893 0-2.417.781-4.425 2.343-6.023 1.561-1.597 3.52-2.397 5.873-2.397 2.501 0 4.532.797 6.1 2.39 1.566 1.59 2.349 3.695 2.349 6.307l-.012.755ZM174.002 67.041h3.994l3.121 13.686 3.829-13.686h3.374l3.914 13.686 3.115-13.686h3.998l-4.879 21.44h-3.892l-3.963-13.862-3.881 13.863h-3.843l-4.887-21.44Zm37.82 8.805c-1.23 0-2.25.438-3.063 1.31-.81.875-1.219 1.995-1.219 3.363 0 1.377.415 2.508 1.243 3.397.825.889 1.843 1.332 3.052 1.332 1.247 0 2.282-.436 3.104-1.31.821-.874 1.232-2.019 1.232-3.434 0-1.387-.411-2.51-1.232-3.37-.822-.858-1.862-1.288-3.117-1.288Zm4.176-3.234h3.979v15.87h-3.979v-1.675c-.776.735-1.553 1.264-2.332 1.587a6.553 6.553 0 0 1-2.538.485c-2.044 0-3.812-.793-5.303-2.381-1.494-1.588-2.24-3.56-2.24-5.922 0-2.447.723-4.452 2.167-6.015 1.443-1.565 3.197-2.347 5.261-2.347.949 0 1.841.178 2.674.534.832.354 1.604.886 2.311 1.597v-1.733Zm10.252 0h3.98v1.625c.903-.756 1.718-1.283 2.449-1.579a5.96 5.96 0 0 1 2.247-.444c1.569 0 2.902.55 3.998 1.647.92.934 1.38 2.314 1.38 4.14v10.48h-3.93V81.53c0-1.894-.085-3.154-.255-3.774-.168-.623-.463-1.097-.886-1.421-.42-.327-.941-.49-1.562-.49-.803 0-1.492.27-2.069.81-.575.54-.973 1.284-1.198 2.237-.115.497-.174 1.57-.174 3.222v6.368h-3.98v-15.87Zm27.738 3.309c-1.253 0-2.288.42-3.104 1.26-.816.843-1.225 1.9-1.225 3.174 0 1.321.419 2.407 1.254 3.25.835.847 1.886 1.27 3.148 1.27 1.231 0 2.251-.413 3.053-1.238.8-.826 1.203-1.91 1.203-3.254 0-1.323-.404-2.397-1.21-3.223-.806-.825-1.846-1.239-3.119-1.239Zm4.154-3.309h3.93v13.582c0 2.683-.539 4.655-1.616 5.917-1.45 1.71-3.63 2.565-6.545 2.565-1.556 0-2.863-.193-3.922-.584-1.059-.389-1.952-.961-2.68-1.714-.729-.755-1.269-1.673-1.619-2.752h4.4c.389.451.891.793 1.504 1.023.614.231 1.34.346 2.178.346 1.073 0 1.935-.165 2.585-.494.656-.33 1.116-.76 1.384-1.282.267-.525.401-1.427.401-2.708-.702.703-1.437 1.204-2.207 1.51-.771.307-1.642.46-2.615.46-2.135 0-3.939-.766-5.408-2.302-1.472-1.537-2.208-3.478-2.208-5.83 0-2.517.78-4.539 2.339-6.064 1.413-1.38 3.1-2.07 5.056-2.07.916 0 1.782.167 2.595.5.813.333 1.63.882 2.448 1.646v-1.749Zm22.118 5.945c-.263-.868-.785-1.574-1.561-2.119-.776-.544-1.677-.817-2.701-.817-1.115 0-2.091.307-2.93.917-.528.382-1.016 1.056-1.465 2.02h8.657Zm3.964 3.109H271.43c.182 1.135.675 2.035 1.476 2.703.8.67 1.821 1.003 3.064 1.003 1.485 0 2.759-.521 3.828-1.568l3.347 1.581c-.836 1.19-1.836 2.069-3.002 2.639-1.165.572-2.548.855-4.15.855-2.485 0-4.512-.783-6.075-2.35-1.563-1.57-2.345-3.534-2.345-5.894 0-2.419.782-4.426 2.343-6.025 1.562-1.597 3.52-2.396 5.873-2.396 2.502 0 4.533.798 6.101 2.388 1.565 1.594 2.35 3.697 2.35 6.31l-.016.754Zm5.469-9.054h3.978v1.625c.9-.756 1.717-1.283 2.449-1.579a5.952 5.952 0 0 1 2.247-.444c1.569 0 2.901.55 3.997 1.647.92.934 1.381 2.314 1.381 4.14v10.48h-3.931V81.53c0-1.894-.085-3.154-.254-3.774-.169-.623-.465-1.097-.886-1.421-.421-.327-.94-.49-1.56-.49-.804 0-1.495.27-2.07.81-.577.54-.977 1.284-1.199 2.237-.117.497-.174 1.57-.174 3.222v6.368h-3.978v-15.87Zm20.696 9.825h7.414v-3.706h-7.414v3.706Zm18.702-3.357v5.52h1.03c1.708 0 2.858-.213 3.451-.642.596-.43.893-1.053.893-1.876 0-.927-.351-1.66-1.045-2.195-.697-.538-1.856-.807-3.473-.807h-.856Zm0-8.159v4.527h.903c1.007 0 1.755-.21 2.244-.627.49-.42.733-.99.733-1.71 0-.672-.23-1.205-.695-1.598-.465-.395-1.17-.592-2.117-.592h-1.068Zm-4.054 17.56v-21.44h3.378c1.96 0 3.394.126 4.298.379 1.288.34 2.313.97 3.074 1.892.76.924 1.141 2.011 1.141 3.264 0 .815-.175 1.556-.522 2.221-.347.664-.911 1.29-1.692 1.872 1.299.612 2.253 1.379 2.852 2.296.602.92.903 2.006.903 3.26a6.088 6.088 0 0 1-.933 3.297c-.625.992-1.427 1.732-2.41 2.223-.984.492-2.341.737-4.074.737h-6.015Zm18.185-15.869h3.435v2.006c.367-.786.856-1.383 1.469-1.792a3.56 3.56 0 0 1 2.011-.612c.515 0 1.054.137 1.617.409l-1.236 3.423c-.466-.233-.85-.349-1.15-.349-.611 0-1.127.379-1.549 1.138-.42.757-.631 2.245-.631 4.46l.013.773v6.414h-3.979v-15.87Zm22.921-7.064c.584 0 1.078.204 1.487.612.406.408.612.897.612 1.47 0 .582-.206 1.078-.612 1.486a2.029 2.029 0 0 1-1.487.611 2.01 2.01 0 0 1-1.47-.611 2.023 2.023 0 0 1-.611-1.486 2 2 0 0 1 .611-1.47 2.01 2.01 0 0 1 1.47-.612Zm-6.468 0a2.03 2.03 0 0 1 1.488.612c.407.408.609.897.609 1.47 0 .582-.202 1.078-.609 1.486-.41.407-.904.611-1.488.611a2.01 2.01 0 0 1-1.47-.611 2.022 2.022 0 0 1-.61-1.486 2 2 0 0 1 .61-1.47 2.01 2.01 0 0 1 1.47-.612Zm-3.748 7.064h4.031v7.637c0 1.486.103 2.519.306 3.095.204.579.531 1.028.984 1.35.453.32 1.008.478 1.67.478.66 0 1.222-.156 1.685-.473.46-.315.803-.779 1.026-1.39.167-.455.248-1.432.248-2.93v-7.767h3.98v6.72c0 2.77-.219 4.665-.656 5.686-.533 1.243-1.321 2.199-2.359 2.864-1.04.664-2.361.997-3.962.997-1.741 0-3.146-.389-4.22-1.165-1.074-.777-1.829-1.86-2.266-3.25-.311-.962-.467-2.711-.467-5.248v-6.604Zm20.65-5.822h3.979v5.822h2.363v3.433h-2.363v12.437h-3.979V76.045h-2.041v-3.433h2.041v-5.821Zm11.187 0h3.98v5.822h2.364v3.433h-2.364v12.437h-3.98V76.045h-2.041v-3.433h2.041v-5.821Zm10.267 21.692h3.978v-15.87h-3.978v15.87Zm1.982-22.387c.697 0 1.296.253 1.795.756.499.505.751 1.116.751 1.833 0 .708-.249 1.312-.743 1.812s-1.085.748-1.774.748a2.444 2.444 0 0 1-1.811-.762 2.553 2.553 0 0 1-.747-1.855c0-.7.246-1.295.741-1.79a2.435 2.435 0 0 1 1.788-.742Zm17.561 8.75-2.472 2.468c-1.005-.994-1.918-1.492-2.734-1.492-.452 0-.802.095-1.054.284-.255.19-.381.424-.381.706 0 .215.08.41.241.589.161.18.559.427 1.194.736l1.465.728c1.541.758 2.601 1.529 3.175 2.316.577.784.865 1.709.865 2.765 0 1.407-.518 2.582-1.555 3.523-1.036.94-2.425 1.411-4.166 1.411-2.316 0-4.166-.902-5.547-2.706l2.451-2.668a5.647 5.647 0 0 0 1.64 1.318c.626.334 1.185.5 1.67.5.525 0 .949-.127 1.27-.378.321-.253.481-.545.481-.875 0-.61-.578-1.207-1.738-1.791l-1.346-.67c-2.572-1.29-3.856-2.908-3.856-4.85 0-1.253.484-2.324 1.453-3.212.967-.889 2.206-1.333 3.716-1.333a6.447 6.447 0 0 1 5.228 2.631Zm17.586 3.712c-.265-.868-.787-1.574-1.56-2.119-.779-.544-1.678-.817-2.703-.817-1.114 0-2.09.307-2.93.917-.528.382-1.014 1.056-1.464 2.02h8.657Zm3.963 3.109h-12.795c.185 1.135.677 2.035 1.476 2.703.802.67 1.822 1.003 3.064 1.003 1.485 0 2.761-.521 3.828-1.568l3.347 1.581c-.834 1.19-1.836 2.069-3 2.639-1.166.572-2.548.855-4.151.855-2.486 0-4.513-.783-6.074-2.35-1.565-1.57-2.345-3.534-2.345-5.894 0-2.419.78-4.426 2.341-6.025 1.563-1.597 3.52-2.396 5.874-2.396 2.501 0 4.533.798 6.101 2.388 1.565 1.594 2.35 3.697 2.35 6.31l-.016.754Zm5.019 6.816h3.98V66.494h-3.98v21.988Zm9.396 0h3.979V66.494h-3.979v21.988Zm21.755-9.925c-.263-.868-.783-1.574-1.559-2.119-.775-.544-1.678-.817-2.701-.817-1.115 0-2.092.307-2.93.917-.528.382-1.016 1.056-1.465 2.02h8.655Zm3.966 3.109h-12.795c.184 1.135.676 2.035 1.475 2.703.8.67 1.823 1.003 3.066 1.003 1.483 0 2.759-.521 3.828-1.568l3.345 1.581c-.836 1.19-1.835 2.069-3.002 2.639-1.162.572-2.546.855-4.15.855-2.485 0-4.51-.783-6.073-2.35-1.563-1.57-2.345-3.534-2.345-5.894 0-2.419.782-4.426 2.343-6.025 1.561-1.597 3.519-2.396 5.875-2.396 2.498 0 4.533.798 6.099 2.388 1.566 1.594 2.35 3.697 2.35 6.31l-.016.754Z" fill="#000"/><mask id="a" style="mask-type:alpha" maskUnits="userSpaceOnUse" x="0" y="0" width="499" height="92"><path fill-rule="evenodd" clip-rule="evenodd" d="M0 0h498.78v91.205H0V0Z" fill="#fff"/></mask><g mask="url(#a)" fill-rule="evenodd" clip-rule="evenodd" fill="#000"><path d="M488.705 72.612v1.625c.899-.756 1.718-1.283 2.45-1.579a5.946 5.946 0 0 1 2.245-.444c1.571 0 2.902.55 3.998 1.647.92.934 1.382 2.314 1.382 4.14v10.48h-3.931V81.53c0-1.894-.085-3.154-.256-3.774-.169-.623-.463-1.097-.884-1.421-.423-.327-.944-.49-1.564-.49a2.92 2.92 0 0 0-2.068.81c-.577.54-.975 1.284-1.199 2.237-.117.497-.173 1.57-.173 3.222v6.368h-3.978v-15.87h3.978ZM38.888 89.613c-11.854-.003-20.52-3.328-26.39-9.092-5.87-5.765-9.002-14.043-9.564-24.138-.367-6.62-.711-20.533-.963-32.773a4475.241 4475.241 0 0 1-.402-22.02h74.638c-.016 1.083-.05 3.199-.1 6.014-.214 12.524-.714 38.843-1.265 48.778a54.296 54.296 0 0 1-.316 3.561h1.6c.136-1.136.24-2.293.306-3.473.738-13.335 1.38-55.655 1.38-55.66l.012-.81h-.809v.795V0H-.048l.012.809c.002.006.643 42.326 1.381 55.662.571 10.362 3.814 19.073 10.038 25.186 6.221 6.115 15.366 9.554 27.505 9.548h.027c7.24 0 13.406-1.233 18.528-3.52v-1.741c-5.009 2.372-11.16 3.667-18.555 3.669Z"/></g><path fill-rule="evenodd" clip-rule="evenodd" d="m39.346 9.757.031 2.606c.604-.654 1.391-1.2 2.195-1.592l.506.957c-1.144.619-2.009 1.56-2.675 2.69l.028 1.916c.604-.654 1.689-1.218 2.63-1.61l.506.957c-1.28.62-2.452 1.568-3.117 2.698l.025 2.037c.659-.599 1.947-1.101 2.78-1.422l.421.997c-1.192.518-2.41 1.35-3.171 2.417l.02 1.862c.658-.6 1.586-1.08 2.42-1.4l.422.998c-1.618.7-2.807 2.426-2.807 2.426l.014 1.916c.657-.599.884-.792 1.719-1.113l.42.998c-1.193.516-1.35 1.1-2.111 2.166l.093 7.024c.392-.172.677-.44.825-.81 2.05-5.097 5.906-10.187 11.501-11.465l.16 1.046c-5.388 1.665-8.86 6.764-10.519 12.122-.16.518-.474.775-1.144 1.032-.587.225-.769.649-.78 1.26l.182 15.091c.394-.172.726-.406.827-.791 1.668-6.4 7.885-11.104 15.1-10.992l.013 1.092c-7.158.386-12.758 5.12-13.971 11.604-.1.53-.475.773-1.145 1.03-.587.226-.77.614-.78 1.223l.19 15.707c.392-.172.728-.408.828-.794 1.467-5.632 6.459-9.95 12.553-10.828l.092 1.243c-5.952 1.214-10.433 5.572-11.504 11.288-.1.533-.474.775-1.144 1.031-.587.227-.77.613-.78 1.224l.102 8.792-1.453.005h.01l-1.453-.005.102-8.792c-.01-.61-.192-.997-.78-1.224-.67-.256-1.043-.498-1.144-1.03-1.07-5.717-5.55-10.075-11.502-11.289l.091-1.243c6.095.878 11.085 5.196 12.553 10.828.1.386.435.622.828.794l.19-15.707c-.011-.609-.194-.997-.78-1.222-.67-.258-1.045-.5-1.145-1.031-1.213-6.484-6.813-11.218-13.97-11.604l.011-1.092c7.216-.111 13.434 4.592 15.1 10.992.101.385.435.618.829.791l.18-15.092c-.01-.61-.192-1.034-.78-1.259-.669-.257-.983-.514-1.145-1.032-1.656-5.358-5.13-10.457-10.517-12.122l.16-1.046c5.594 1.278 9.452 6.368 11.5 11.464.15.37.434.639.826.811l.092-7.024c-.76-1.067-.917-1.65-2.11-2.165l.421-.999c.834.321 1.06.514 1.719 1.113l.013-1.916s-1.189-1.726-2.806-2.426l.42-.999c.835.321 1.763.801 2.421 1.4l.02-1.861c-.76-1.066-1.979-1.899-3.172-2.417l.421-.997c.834.32 2.122.823 2.78 1.422l.026-2.037c-.665-1.13-1.836-2.078-3.117-2.698l.506-.958c.941.393 2.026.957 2.63 1.611l.028-1.916c-.665-1.13-1.531-2.071-2.675-2.69l.507-.957c.803.391 1.59.938 2.194 1.592l.03-2.606h.986Z" fill="#00B38F"/><path fill-rule="evenodd" clip-rule="evenodd" d="M35.876 75.288c.079.386.295.544.959.809.695.24.984.839.97 1.503l-.097 8.494 1.145.002L40 86.094l-.097-8.5c-.015-.658.276-1.256.97-1.497.664-.265.88-.423.958-.81 1.076-5.757 5.548-10.163 11.478-11.47l-.048-.662c-5.837.964-10.581 5.149-11.989 10.561-.14.525-.578.808-.996.991l-.414.182-.195-16.166c-.013-.657.277-1.256.97-1.496.665-.267.883-.425.96-.81 1.222-6.539 6.818-11.329 13.961-11.827l-.005-.515c-6.959.019-12.91 4.597-14.517 10.77-.14.525-.577.806-.996.99l-.412.18-.188-15.551c-.01-.655.265-1.282.972-1.533.646-.261.823-.42.967-.84 1.65-5.331 5.086-10.452 10.469-12.241l-.072-.473c-5.28 1.352-8.99 6.259-10.977 11.207-.18.45-.536.78-.983.975l-.415.18-.098-7.573.058-.08c.67-.939.918-1.612 1.966-2.141l-.194-.462c-.59.251-.77.42-1.357.948l-.496.45-.017-2.68.052-.077c.017-.016 1.086-1.594 2.667-2.404l-.196-.464c-.736.308-1.514.737-2.06 1.236l-.493.446-.027-2.625.057-.079c.747-1.048 1.884-1.857 3.026-2.395l-.194-.464c-.816.316-1.898.78-2.418 1.263l-.491.445-.035-2.785.043-.071c.659-1.114 1.753-2.035 2.968-2.676l-.235-.445c-.859.376-1.784.893-2.276 1.43l-.506.55-.04-2.747.042-.073c.636-1.08 1.459-2.007 2.533-2.654l-.233-.442c-.684.366-1.342.844-1.85 1.395l-.508.553-.037-3.062h-.396l-.036 3.06-.508-.552c-.509-.55-1.165-1.028-1.85-1.394l-.233.442c1.073.647 1.898 1.576 2.533 2.654l.042.073-.042 2.748-.506-.55c-.492-.538-1.416-1.055-2.273-1.43l-.236.444c1.215.64 2.31 1.562 2.968 2.676l.043.07-.035 2.788-.492-.447c-.52-.482-1.601-.947-2.417-1.263l-.195.465c1.143.537 2.279 1.346 3.027 2.394l.057.079-.029 2.625-.492-.445c-.546-.5-1.323-.93-2.059-1.237l-.195.465c1.578.809 2.648 2.387 2.665 2.403l.053.078-.018 2.68-.495-.45c-.588-.53-.768-.698-1.358-.949l-.194.462c1.048.53 1.297 1.202 1.966 2.14l.059.081-.1 7.572-.41-.179c-.45-.195-.807-.524-.986-.975-1.987-4.948-5.696-9.855-10.977-11.207l-.073.473c5.383 1.79 8.82 6.91 10.471 12.24.142.42.32.58.966.84.706.252.982.879.97 1.544l-.186 15.541-.413-.18c-.418-.184-.855-.465-.996-.99-1.608-6.173-7.559-10.751-14.517-10.772l-.006.517c7.144.498 12.74 5.288 13.962 11.828.078.384.296.542.959.809.695.24.986.839.972 1.503l-.195 16.158-.413-.18c-.42-.184-.857-.467-.997-.992-1.408-5.412-6.154-9.597-11.99-10.561l-.049.661c5.93 1.308 10.402 5.714 11.48 11.472Zm2.982 11.405h-.01l-1.744-.005.105-9.085c-.035-.566-.108-.74-.59-.95-.673-.248-1.207-.576-1.329-1.255-1.048-5.593-5.427-9.856-11.269-11.051l-.257-.053.135-1.824.316.046c6.207.895 11.297 5.291 12.799 11.048a.663.663 0 0 0 .247.358l.182-15.19c-.034-.565-.108-.74-.588-.95-.675-.248-1.209-.576-1.33-1.254-1.19-6.342-6.66-10.977-13.694-11.36l-.285-.015.02-1.669.288-.005.255-.003c7.239.003 13.451 4.751 15.14 11.218a.67.67 0 0 0 .246.355l.176-14.575c-.032-.567-.121-.786-.589-.985-.693-.254-1.145-.61-1.323-1.224-1.64-5.302-5.07-10.307-10.322-11.924l-.246-.076.249-1.617.313.07c5.74 1.32 9.64 6.5 11.71 11.645.061.148.145.273.258.382l.083-6.392c-.745-1.06-.85-1.51-1.93-1.984l-.27-.118.648-1.537.27.105c.609.23.942.424 1.317.733l.008-1.162a8.2 8.2 0 0 0-.712-.84c-.483-.503-1.162-1.085-1.914-1.409l-.27-.117.647-1.537.27.103c.671.26 1.4.615 2.022 1.064l.012-1.15c-.719-.97-1.866-1.754-2.99-2.238l-.272-.12.648-1.534.27.103c.676.264 1.646.632 2.382 1.11l.017-1.366c-.63-1.03-1.736-1.925-2.947-2.51l-.28-.134.78-1.471.25.104c.746.313 1.579.723 2.227 1.225l.018-1.174c-.64-1.063-1.455-1.934-2.517-2.509l-.261-.141.779-1.473.261.127a8.203 8.203 0 0 1 1.772 1.163l.026-2.208h1.281v.3-.3h.295l.026 2.208a8.174 8.174 0 0 1 1.774-1.164l.26-.126.778 1.473-.26.141c-1.062.575-1.878 1.446-2.516 2.509l.017 1.174c.648-.502 1.481-.912 2.225-1.225l.253-.104.777 1.47-.279.136c-1.21.584-2.317 1.479-2.947 2.51l.017 1.365c.737-.478 1.708-.846 2.382-1.11l.27-.103.648 1.536-.271.118c-1.124.484-2.272 1.268-2.99 2.237l.012 1.15c.621-.448 1.35-.804 2.022-1.063l.27-.103.648 1.537-.27.117c-.754.324-1.432.906-1.916 1.41-.36.374-.609.698-.712.838l.008 1.163c.376-.31.708-.503 1.317-.733l.271-.105.649 1.537-.272.118c-1.08.473-1.185.925-1.93 1.984l.083 6.392c.114-.108.198-.234.258-.382 2.071-5.145 5.97-10.325 11.71-11.644l.313-.071.249 1.617-.246.076c-5.251 1.617-8.68 6.622-10.322 11.924-.178.615-.63.97-1.322 1.224-.468.199-.557.418-.589.977l.176 14.583a.674.674 0 0 0 .246-.355c1.687-6.467 7.9-11.215 15.14-11.218.084 0 .169 0 .255.003l.287.008.02 1.666-.285.015c-7.033.383-12.505 5.018-13.692 11.36-.122.678-.656 1.006-1.333 1.254-.48.21-.553.385-.586.941l.182 15.199a.67.67 0 0 0 .247-.358c1.502-5.757 6.592-10.153 12.798-11.048l.317-.046.136 1.824-.257.053c-5.844 1.195-10.222 5.458-11.271 11.051-.121.679-.655 1.007-1.33 1.255-.48.21-.553.384-.589.942l.106 9.093-1.745.005Z" fill="#1A1919"/><path fill-rule="evenodd" clip-rule="evenodd" d="M17.704 41.086a1.168 1.168 0 0 0-.31-.081l-.158.403s-1.224-1.394-2.34-1.221l-.09.48s-1.573-1.31-2.608-.853l.084.463s-1.978-.81-2.858-.1l.07.34s-2.1-.311-2.766.603c.277 1.095 2.354 1.594 2.354 1.594l-.192.29c.551.987 2.686.976 2.686.976l-.25.398c.79.81 2.739.183 2.739.183l-.099.478c.972.581 2.629-.255 2.629-.255l-.004.432c.232.067.49.06.755.005l.065.12s-1.855.046-2.437 1.015l.312.375s-2.016.367-2.328 1.455l.41.234s-1.889.996-1.908 2.128l.307.165s-1.585 1.413-1.311 2.51c1.02.49 2.732-.785 2.732-.785l.1.333c1.111.211 2.47-1.438 2.47-1.438l.146.447c1.128-.086 1.896-1.985 1.896-1.985l.303.383c1.069-.375 1.487-2.182 1.487-2.182l.332.28a1.01 1.01 0 0 0 .21-.2h-.002c-.13.44-.183.93-.004 1.339l.487-.038s-.867 1.857-.16 2.741l.425-.198s-.278 2.117.633 2.788l.312-.154s.233 2.11 1.287 2.52c.99-.547.942-2.683.942-2.683l.33.112c.813-.785.257-2.846.257-2.846l.449.14c.583-.97-.521-2.694-.521-2.694l.488-.028c.312-1.088-.92-2.476-.92-2.476l.422-.106c.02-1.132-2.152-2.267-2.152-2.267s2.838.037 3.414-.937l-.303-.31s1.775-.54 2.078-1.63l-.403-.278s1.845-.894 1.855-2.024l-.455-.115s1.553-1.466 1.27-2.563l-.34-.076s1.151-1.783.595-2.768c-1.115-.201-2.426 1.487-2.426 1.487l-.184-.296c-1.127.094-1.998 2.047-1.998 2.047l-.26-.394c-1.064.384-1.297 2.42-1.297 2.42l-.394-.289c-.93.647-.852 2.501-.852 2.501l-.36-.168v.003c.027-.321-.013-.624-.168-.86l-.413.132s.305-1.83-.54-2.585l-.426.236s.017-2.048-.992-2.559l-.304.357s-.626-2.041-1.732-2.274l-.22.27s-1.088-1.823-2.219-1.76c-.672.909.258 2.832.258 2.832l-.347.035c-.415 1.051.948 2.699.948 2.699l-.467.056c-.129 1.125 1.592 2.237 1.592 2.237l-.433.226c.072.474.416.881.79 1.196l.032.012Z" fill="#1A1919"/><path fill-rule="evenodd" clip-rule="evenodd" d="M22.405 44.226s2.12-.625 2.721-1.02l-.395-.429s2.004-.57 2.217-1.367l-.562-.464s1.978-.805 2.018-1.6l-.605-.246s1.772-1.707 1.518-2.398l-.58-.116s1.395-1.812 1.015-2.526c-.8-.124-2.05 1.791-2.05 1.791l-.3-.51c-.738-.01-1.762 2.225-1.762 2.225l-.432-.487c-.739.298-.845 2.431-.845 2.431l-.624-.375c-.681.462-.558 2.542-.558 2.542l-.535-.23c-.175.698-1.065 1.482-1.065 1.482s.304-1.656.215-2.37l-.558.162s.375-2.048-.243-2.592l-.667.296s.156-2.128-.54-2.517l-.487.432s-.744-2.344-1.476-2.424l-.362.47s-1.005-2.054-1.814-2.03c-.464.662.697 2.63.697 2.63l-.59.046c-.337.655 1.214 2.565 1.214 2.565l-.63.17c-.059.794 1.805 1.835 1.805 1.835l-.614.394c.114.816 2.032 1.628 2.032 1.628l-.444.376c.549.468.476 1.214.476 1.214s-1.381-1.161-1.99-1.545l-.228.535s-1.348-1.589-2.159-1.454l-.193.703s-1.548-1.468-2.29-1.175l.026.65s-2.285-.91-2.811-.394l.134.578s-2.225-.522-2.72.119c.218.777 2.479 1.126 2.479 1.126l-.342.485c.295.676 2.755.687 2.755.687l-.267.593c.578.55 2.563-.233 2.563-.233l-.083.724c.702.43 2.545-.54 2.545-.54l.01.58c.71-.127 2.32-.435 2.32-.435s-.81.785-1.497 1.006l.265.519s-2.082.015-2.5.726l.417.6s-2.12.246-2.37 1.002l.516.398s-2.163 1.17-2.104 1.905l.53.267s-1.828 1.375-1.653 2.164c.739.332 2.454-1.18 2.454-1.18l.153.573c.708.206 2.292-1.676 2.292-1.676l.286.587c.79-.092 1.462-2.118 1.462-2.118l.503.528c.78-.265 1.216-2.302 1.216-2.302l.454.365c.356-.627 1.102-3.095 1.102-3.095s.212 1.242-.003 1.93l.576.084s-1.193 1.708-.855 2.46l.729.007s-1.026 1.871-.554 2.513l.624-.191s-.298 2.441.338 2.818l.523-.278s.06 2.288.808 2.601c.697-.41.456-2.685.456-2.685l.556.207c.578-.458-.038-2.839-.038-2.839l.642.108c.384-.699-.88-2.42-.88-2.42l.722-.104c.234-.788-1.173-2.323-1.173-2.323l.56-.159c-.305-.653-1.496-1.99-1.496-1.99Zm15.37 9.533c.12.45-.138 1.516-.214 1.536-.11.03-.696-.81-.816-1.26-.122-.451.012-.876.296-.954.284-.076.614.227.734.678Z" fill="#00B38F"/><path fill-rule="evenodd" clip-rule="evenodd" d="M37.554 55.592c-.175-.014-.203-.072-.258-.105a1.344 1.344 0 0 1-.13-.132 3.638 3.638 0 0 1-.267-.36c-.183-.28-.364-.598-.444-.883a1.607 1.607 0 0 1-.054-.406c.001-.382.148-.787.562-.913a.649.649 0 0 1 .168-.023c.487.025.794.431.931.913l-.286.076-.29.076a.87.87 0 0 0-.194-.367c-.076-.083-.143-.103-.161-.1l-.014.002c-.01 0-.12.088-.12.336 0 .076.011.161.037.251.034.17.227.507.398.757a3.41 3.41 0 0 0 .075-.655.896.896 0 0 0-.02-.224l.289-.076.286-.076c.033.12.042.246.042.376-.007.512-.134 1.081-.248 1.33-.039.04 0 .095-.212.191l-.016.004-.01.003c-.026.005-.044.005-.053.005h-.01Z" fill="#1A1919"/><path fill-rule="evenodd" clip-rule="evenodd" d="M37.535 72.616c.12.45-.137 1.515-.214 1.535-.108.03-.696-.809-.816-1.26-.122-.45.013-.876.297-.953.284-.076.612.228.733.678Z" fill="#00B38F"/><path fill-rule="evenodd" clip-rule="evenodd" d="m36.89 72.225-.013.002c-.011 0-.12.088-.119.335 0 .077.01.163.034.252.036.17.23.506.4.76.043-.214.077-.465.076-.659a.935.935 0 0 0-.02-.222c-.078-.318-.304-.468-.354-.468h-.004Zm.425 2.224c-.176-.015-.204-.071-.258-.105a1.063 1.063 0 0 1-.13-.132 3.43 3.43 0 0 1-.267-.36c-.183-.279-.364-.598-.445-.882a1.618 1.618 0 0 1-.054-.408c.002-.38.148-.786.56-.911a.618.618 0 0 1 .17-.023c.487.023.793.43.932.91l-.288.077.288-.076c.033.122.042.247.042.376-.008.513-.135 1.082-.247 1.332-.041.038 0 .094-.239.197a.32.32 0 0 1-.055.005h-.01Z" fill="#1A1919"/><path fill-rule="evenodd" clip-rule="evenodd" d="M37.983 35.517c.12.45-.137 1.515-.214 1.536-.108.03-.695-.81-.816-1.26-.122-.45.013-.877.297-.953.285-.078.612.226.733.677Z" fill="#00B38F"/><path fill-rule="evenodd" clip-rule="evenodd" d="M37.507 37.245a1.198 1.198 0 0 1-.132-.132 3.7 3.7 0 0 1-.267-.359c-.183-.28-.364-.6-.444-.884a1.573 1.573 0 0 1-.055-.406c.001-.38.148-.787.56-.912a.647.647 0 0 1 .171-.022c.487.023.793.43.932.91l-.289.076-.288.078c-.079-.328-.316-.478-.355-.468l-.015.002c-.01 0-.119.088-.119.336 0 .076.012.162.035.252.035.17.23.507.4.758.042-.212.076-.465.075-.657a.908.908 0 0 0-.02-.223l.287-.078.29-.076c.031.122.04.247.04.377-.007.511-.135 1.08-.248 1.33-.04.04.002.096-.237.199a.331.331 0 0 1-.064.005c-.177-.014-.206-.072-.257-.106Zm22.528 3.829c.373-.315.718-.722.788-1.196l-.432-.226s1.721-1.112 1.593-2.237l-.467-.056s1.362-1.648.948-2.7l-.347-.034s.93-1.923.257-2.833c-1.13-.062-2.217 1.76-2.217 1.76l-.22-.269c-1.107.233-1.733 2.274-1.733 2.274l-.306-.357c-1.008.51-.99 2.559-.99 2.559l-.427-.236c-.843.754-.54 2.585-.54 2.585l-.413-.133c-.154.237-.194.54-.167.86v-.002l-.36.168s.078-1.854-.851-2.5l-.395.288s-.234-2.036-1.299-2.42l-.258.394s-.87-1.953-1.998-2.047l-.185.296s-1.311-1.688-2.424-1.487c-.557.985.593 2.768.593 2.768l-.338.076c-.283 1.097 1.27 2.563 1.27 2.563l-.457.115c.011 1.13 1.855 2.024 1.855 2.024l-.402.278c.303 1.09 2.078 1.63 2.078 1.63l-.302.31c.574.974 3.414.937 3.414.937s-2.173 1.135-2.152 2.267l.419.106s-1.23 1.388-.917 2.476l.488.028s-1.105 1.725-.521 2.694l.448-.14s-.558 2.06.257 2.846l.33-.112s-.048 2.136.942 2.683c1.054-.41 1.287-2.52 1.287-2.52l.313.154c.91-.671.63-2.788.63-2.788l.427.198c.707-.884-.16-2.741-.16-2.741l.488.038c.179-.41.125-.899-.006-1.34h-.001a.98.98 0 0 0 .21.201l.33-.28s.42 1.807 1.488 2.181l.304-.382s.769 1.899 1.896 1.985l.144-.447s1.36 1.65 2.472 1.438l.1-.333s1.713 1.275 2.732.785c.274-1.097-1.31-2.51-1.31-2.51l.307-.165c-.021-1.132-1.909-2.128-1.909-2.128l.41-.234c-.312-1.088-2.329-1.455-2.329-1.455l.314-.375c-.584-.97-2.438-1.015-2.438-1.015l.065-.12c.263.054.522.062.755-.005l-.004-.432s1.657.836 2.629.255l-.1-.478s1.952.628 2.74-.183l-.25-.398s2.135.011 2.686-.976l-.191-.29s2.076-.499 2.353-1.594c-.667-.914-2.766-.603-2.766-.603l.07-.34c-.882-.71-2.858.1-2.858.1l.084-.463c-1.034-.457-2.61.854-2.61.854l-.087-.481c-1.117-.173-2.341 1.221-2.341 1.221l-.158-.404c-.104.012-.208.04-.31.082l.032-.012Z" fill="#1A1919"/><path fill-rule="evenodd" clip-rule="evenodd" d="m53.806 46.216.56.159s-1.408 1.535-1.173 2.323l.722.105s-1.263 1.72-.88 2.419l.643-.108s-.619 2.38-.04 2.84l.557-.208s-.24 2.275.456 2.685c.746-.313.808-2.601.808-2.601l.525.278c.634-.377.337-2.818.337-2.818l.622.19c.473-.641-.552-2.512-.552-2.512l.728-.008c.338-.751-.854-2.46-.854-2.46l.576-.083c-.218-.688-.005-1.93-.005-1.93s.747 2.468 1.103 3.095l.454-.365s.438 2.037 1.216 2.302l.502-.528s.672 2.026 1.462 2.118l.286-.587s1.584 1.882 2.292 1.676l.154-.572s1.716 1.511 2.454 1.18c.177-.79-1.654-2.165-1.654-2.165l.53-.267c.06-.735-2.103-1.905-2.103-1.905l.516-.398c-.25-.756-2.37-1.003-2.37-1.003l.417-.6c-.418-.71-2.502-.725-2.502-.725l.266-.519c-.686-.22-1.497-1.006-1.497-1.006s1.61.307 2.32.436l.01-.582s1.844.97 2.547.541l-.084-.724s1.986.783 2.563.233l-.268-.593s2.46-.01 2.755-.687l-.34-.485s2.26-.349 2.478-1.126c-.493-.641-2.72-.12-2.72-.12l.135-.577c-.526-.516-2.812.395-2.812.395l.026-.651c-.74-.293-2.29 1.175-2.29 1.175l-.193-.703c-.812-.135-2.16 1.454-2.16 1.454l-.227-.535c-.61.384-1.99 1.545-1.99 1.545s-.073-.746.476-1.214l-.443-.376s1.918-.812 2.031-1.628l-.614-.394s1.864-1.04 1.804-1.836l-.629-.169s1.552-1.91 1.213-2.565l-.59-.046s1.163-1.968.699-2.63c-.809-.024-1.815 2.03-1.815 2.03l-.362-.47c-.734.08-1.475 2.424-1.475 2.424l-.49-.432c-.694.389-.54 2.517-.54 2.517l-.666-.296c-.618.544-.24 2.592-.24 2.592l-.561-.162c-.088.714.217 2.37.217 2.37s-.89-.784-1.066-1.482l-.535.23s.121-2.08-.557-2.542l-.626.375s-.105-2.133-.845-2.43l-.43.486s-1.025-2.236-1.762-2.226l-.3.511s-1.251-1.915-2.05-1.791c-.38.714 1.015 2.526 1.015 2.526l-.582.116c-.253.69 1.519 2.398 1.519 2.398l-.603.245c.038.796 2.015 1.6 2.015 1.6l-.561.465c.213.797 2.217 1.367 2.217 1.367l-.394.429c.6.395 2.72 1.02 2.72 1.02s-1.191 1.337-1.496 1.99Zm-13.873 7.543c-.121.45.137 1.516.213 1.536.108.03.695-.81.816-1.26.121-.451-.012-.876-.297-.954-.284-.076-.613.227-.732.678Z" fill="#00B38F"/><path fill-rule="evenodd" clip-rule="evenodd" d="M40.22 53.836a.872.872 0 0 0-.021.223c-.004.188.032.444.076.656l.035-.05c.161-.24.324-.55.364-.708.023-.088.034-.175.034-.252.001-.246-.109-.335-.12-.336l-.013-.002c-.039-.01-.276.14-.354.468l-.288-.076.287.077Zm-.154 1.746c-.216-.097-.177-.153-.216-.193a1.408 1.408 0 0 1-.052-.13 3.723 3.723 0 0 1-.09-.335 4.214 4.214 0 0 1-.106-.865c0-.131.01-.256.042-.378.138-.48.445-.886.931-.91a.569.569 0 0 1 .167.022c.415.126.562.531.563.912 0 .131-.018.268-.054.407-.15.493-.566 1.121-.843 1.374-.053.035-.081.092-.256.106-.003 0-.023.003-.086-.01Z" fill="#1A1919"/><path fill-rule="evenodd" clip-rule="evenodd" d="M40.172 72.616c-.12.45.138 1.515.213 1.535.11.03.696-.809.817-1.26.12-.45-.012-.876-.296-.953-.285-.076-.613.228-.734.678Z" fill="#00B38F"/><path fill-rule="evenodd" clip-rule="evenodd" d="M40.46 72.694a.983.983 0 0 0-.022.223c-.004.189.034.443.077.656l.035-.052c.16-.24.324-.55.364-.706a1.02 1.02 0 0 0 .034-.252c.002-.247-.108-.336-.122-.337l-.011-.001c-.038-.01-.277.14-.354.467l-.29-.076.289.078Zm-.154 1.744c-.215-.094-.176-.152-.215-.19a.948.948 0 0 1-.052-.131 4.348 4.348 0 0 1-.197-1.2c0-.133.01-.258.042-.38.137-.479.446-.885.931-.91.056 0 .114.008.167.023.414.126.562.531.563.913 0 .131-.017.267-.056.407-.148.492-.564 1.12-.84 1.374-.054.033-.082.09-.258.106-.001-.001-.023.002-.085-.012Z" fill="#1A1919"/><path fill-rule="evenodd" clip-rule="evenodd" d="M39.724 35.517c-.121.45.137 1.515.214 1.536.109.03.695-.81.816-1.26.12-.45-.012-.877-.296-.953-.285-.078-.614.226-.734.677Z" fill="#00B38F"/><path fill-rule="evenodd" clip-rule="evenodd" d="M40.011 35.594a.958.958 0 0 0-.022.224c-.004.189.033.444.078.657l.034-.052c.162-.24.325-.552.364-.707.023-.089.035-.175.035-.252 0-.248-.11-.336-.121-.336l-.012-.002c-.038-.01-.278.14-.356.467l-.288-.077.288.078Zm-.152 1.745c-.217-.093-.177-.152-.217-.19a.918.918 0 0 1-.052-.13 3.017 3.017 0 0 1-.09-.337 4.2 4.2 0 0 1-.107-.864c0-.131.01-.257.042-.378.137-.48.444-.887.932-.91.056 0 .115.006.167.02.414.127.561.533.562.914 0 .13-.018.269-.055.406-.149.494-.564 1.122-.84 1.375-.055.034-.083.091-.258.106a.313.313 0 0 1-.084-.012Z" fill="#1A1919"/><path fill-rule="evenodd" clip-rule="evenodd" d="M36.386 10.572a1.52 1.52 0 1 1-3.041-.001 1.52 1.52 0 0 1 3.04.002Z" fill="#FEDB4A"/><path fill-rule="evenodd" clip-rule="evenodd" d="M33.642 10.572a1.221 1.221 0 1 0 2.443-.001 1.221 1.221 0 0 0-2.443.002Zm-.597 0a1.82 1.82 0 1 1 3.639.002 1.82 1.82 0 0 1-3.64-.002Z" fill="#1A1919"/><path fill-rule="evenodd" clip-rule="evenodd" d="M35.615 14.702a1.52 1.52 0 1 1-3.04.001 1.52 1.52 0 0 1 3.04-.001Z" fill="#FEDB4A"/><path fill-rule="evenodd" clip-rule="evenodd" d="M32.873 14.702a1.222 1.222 0 1 0 2.444 0 1.222 1.222 0 0 0-2.444 0Zm-.597 0a1.82 1.82 0 0 1 1.818-1.82 1.82 1.82 0 0 1 0 3.639 1.819 1.819 0 0 1-1.818-1.82Z" fill="#1A1919"/><path fill-rule="evenodd" clip-rule="evenodd" d="M35.376 18.837a1.52 1.52 0 1 1-3.042-.001 1.52 1.52 0 0 1 3.041 0Z" fill="#FEDB4A"/><path fill-rule="evenodd" clip-rule="evenodd" d="M32.632 18.837a1.223 1.223 0 0 0 2.444 0c0-.676-.547-1.22-1.221-1.223a1.224 1.224 0 0 0-1.223 1.223Zm-.598 0a1.819 1.819 0 1 1 3.638 0 1.819 1.819 0 0 1-3.638 0Z" fill="#1A1919"/><path fill-rule="evenodd" clip-rule="evenodd" d="M35.882 22.95a1.52 1.52 0 1 1-3.043-.003 1.52 1.52 0 0 1 3.043.003Z" fill="#FEDB4A"/><path fill-rule="evenodd" clip-rule="evenodd" d="M33.139 22.95a1.222 1.222 0 0 0 2.444 0 1.222 1.222 0 1 0-2.444 0Zm-.598 0a1.82 1.82 0 0 1 3.64 0 1.82 1.82 0 0 1-3.64 0Z" fill="#1A1919"/><path fill-rule="evenodd" clip-rule="evenodd" d="M36.468 27.067a1.52 1.52 0 1 1-3.041-.001 1.52 1.52 0 0 1 3.041.001Z" fill="#FEDB4A"/><path fill-rule="evenodd" clip-rule="evenodd" d="M33.726 27.066a1.223 1.223 0 0 0 2.445 0 1.225 1.225 0 0 0-1.223-1.222 1.224 1.224 0 0 0-1.222 1.222Zm-.597 0a1.82 1.82 0 1 1 3.64 0 1.82 1.82 0 0 1-3.64 0Z" fill="#1A1919"/><path fill-rule="evenodd" clip-rule="evenodd" d="M41.322 10.572a1.52 1.52 0 1 0 3.04 0 1.52 1.52 0 0 0-3.04 0Z" fill="#FEDB4A"/><path fill-rule="evenodd" clip-rule="evenodd" d="M42.843 11.793a1.222 1.222 0 1 0-.001-2.445 1.222 1.222 0 0 0 0 2.445Zm-1.82-1.22a1.82 1.82 0 1 1 3.64 0 1.82 1.82 0 0 1-3.64 0Z" fill="#1A1919"/><path fill-rule="evenodd" clip-rule="evenodd" d="M42.092 14.702a1.522 1.522 0 1 0 3.043 0 1.522 1.522 0 0 0-3.043 0Z" fill="#FEDB4A"/><path fill-rule="evenodd" clip-rule="evenodd" d="M43.612 15.924a1.224 1.224 0 0 0 1.222-1.222c0-.675-.548-1.22-1.222-1.222a1.224 1.224 0 0 0-1.222 1.222c0 .674.548 1.22 1.222 1.222Zm-1.819-1.222a1.821 1.821 0 0 1 1.82-1.82 1.82 1.82 0 0 1 0 3.639 1.82 1.82 0 0 1-1.82-1.82Z" fill="#1A1919"/><path fill-rule="evenodd" clip-rule="evenodd" d="M42.332 18.837a1.52 1.52 0 1 0 3.04 0 1.52 1.52 0 0 0-3.04 0Z" fill="#FEDB4A"/><path fill-rule="evenodd" clip-rule="evenodd" d="M43.853 20.058a1.222 1.222 0 1 0 0-2.443 1.222 1.222 0 0 0 0 2.443Zm-1.82-1.221c0-1.006.814-1.819 1.82-1.819a1.818 1.818 0 1 1 0 3.637 1.818 1.818 0 0 1-1.82-1.819Z" fill="#1A1919"/><path fill-rule="evenodd" clip-rule="evenodd" d="M41.826 22.95a1.52 1.52 0 1 0 3.039-.002 1.52 1.52 0 0 0-3.039.002Z" fill="#FEDB4A"/><path fill-rule="evenodd" clip-rule="evenodd" d="M43.346 24.17c.675 0 1.22-.546 1.223-1.22a1.224 1.224 0 0 0-2.446 0c.002.673.548 1.22 1.223 1.22Zm-1.818-1.22a1.817 1.817 0 1 1 1.818 1.817 1.817 1.817 0 0 1-1.818-1.817Z" fill="#1A1919"/><path fill-rule="evenodd" clip-rule="evenodd" d="M41.239 27.067a1.52 1.52 0 1 0 3.039 0 1.52 1.52 0 0 0-3.04 0Z" fill="#FEDB4A"/><path fill-rule="evenodd" clip-rule="evenodd" d="M42.759 28.287a1.22 1.22 0 1 0 0-2.443 1.227 1.227 0 0 0-1.223 1.222 1.224 1.224 0 0 0 1.223 1.221Zm-1.819-1.22a1.82 1.82 0 1 1 3.64-.001 1.82 1.82 0 0 1-3.64 0Z" fill="#1A1919"/><path fill-rule="evenodd" clip-rule="evenodd" d="M40.84 7.852a2.027 2.027 0 1 1-4.055 0 2.028 2.028 0 1 1 4.055 0Z" fill="#FEDB4A"/><path fill-rule="evenodd" clip-rule="evenodd" d="M37.083 7.852a1.732 1.732 0 0 0 1.73 1.728 1.73 1.73 0 0 0 0-3.457 1.73 1.73 0 0 0-1.73 1.729Zm-.596 0a2.325 2.325 0 1 1 4.65 0 2.325 2.325 0 0 1-4.65 0Zm-16.85 54.366a1.154 1.154 0 0 0-.32.013l-.033.433s-1.579-.976-2.595-.482l.056.487s-1.89-.794-2.745-.056l.215.419s-2.127-.196-2.761.74l.168.306s-2.1.316-2.471 1.384c.585.967 2.717.836 2.717.836l-.098.334c.817.783 2.854.147 2.854.147l-.123.455c.992.544 2.674-.628 2.674-.628l.046.488c1.097.268 2.436-1.013 2.436-1.013l.124.414c.242-.004.487-.088.724-.216l.096.095s-1.76.587-2.034 1.683l.41.268s-1.82.941-1.8 2.073l.458.102s-1.512 1.507-1.2 2.595l.341.067s-1.103 1.814-.52 2.783c1.119.17 2.384-1.55 2.384-1.55l.193.29c1.125-.123 1.943-2.097 1.943-2.097l.268.386c1.054-.413 1.232-2.455 1.232-2.455l.404.278c.911-.67.783-2.522.783-2.522l.399.17a.958.958 0 0 0 .14-.253v.001c.005.46.096.943.388 1.282l.454-.178s-.285 2.03.648 2.666l.35-.312s.353 2.106 1.42 2.48l.254-.24s.84 1.95 1.969 2.036c.785-.814.115-2.842.115-2.842l.348.011c.55-.99-.587-2.798-.587-2.798l.47.002c.275-1.096-1.287-2.424-1.287-2.424l.459-.168c-.02-1.132-1.602-2.098-1.602-2.098l.37-.225c-.31-1.088-2.72-1.54-2.72-1.54s2.725-.793 2.99-1.894l-.38-.208s1.54-1.035 1.51-2.166l-.466-.148s1.503-1.394 1.182-2.477l-.47.022s1.057-1.856.466-2.822l-.347.028s.578-2.043-.243-2.821c-1.123.134-1.883 2.13-1.883 2.13l-.263-.228c-1.05.422-1.311 2.54-1.311 2.54l-.363-.3c-.906.679-.533 2.694-.533 2.694l-.463-.16c-.699.89-.082 2.64-.082 2.64l-.394-.056v.002c-.067-.314-.195-.593-.412-.773l-.355.248s-.245-1.84-1.272-2.314l-.34.351s-.581-1.964-1.697-2.157l-.187.43s-1.194-1.769-2.322-1.668l-.13.323s-1.574-1.425-2.636-1.034c-.378 1.065 1.075 2.634 1.075 2.634l-.322.133c-.09 1.128 1.694 2.303 1.694 2.303l-.428.192c.206 1.112 2.177 1.672 2.177 1.672l-.347.345c.205.432.655.72 1.104.91l.034.002Z" fill="#1A1919"/><path fill-rule="evenodd" clip-rule="evenodd" d="M25.05 63.846s1.845-1.215 2.304-1.771l-.501-.293s1.748-1.134 1.718-1.955l-.671-.283s1.654-1.347 1.457-2.12l-.649-.059s1.197-2.15.752-2.735l-.59.058s.805-2.14.232-2.713c-.801.115-1.436 2.315-1.436 2.315l-.437-.401c-.707.205-1.034 2.644-1.034 2.644l-.554-.34c-.62.501-.097 2.57-.097 2.57l-.708-.175c-.514.642.21 2.594.21 2.594l-.577-.064c.037.72-.585 1.73-.585 1.73s-.195-1.673-.489-2.332l-.486.322s-.239-2.072-.99-2.409l-.551.477s-.473-2.08-1.252-2.247l-.34.556s-1.397-2.026-2.12-1.886l-.21.554s-1.562-1.67-2.329-1.41c-.249.768 1.439 2.312 1.439 2.312l-.553.215c-.13.725 1.91 2.098 1.91 2.098l-.55.346c.175.777 2.26 1.227 2.26 1.227l-.47.556c.347.747 2.42.962 2.42.962l-.315.492c.662.285.811 1.02.811 1.02s-1.661-.705-2.356-.896l-.06.578s-1.754-1.124-2.491-.757l.021.729s-1.911-.951-2.533-.455l.214.615s-2.452-.202-2.804.446l.299.513s-2.282.15-2.567.908c.437.682 2.7.352 2.7.352l-.185.564c.48.56 2.836-.148 2.836-.148l-.082.644c.712.356 2.381-.971 2.381-.971l.132.715c.798.206 2.277-1.262 2.277-1.262l.18.552c.641-.33 2.092-1.094 2.092-1.094s-.547.988-1.138 1.401l.404.417s-1.986.625-2.178 1.425l.574.452s-1.955.856-1.972 1.653l.61.229s-1.726 1.753-1.454 2.438l.584.1s-1.346 1.849-.947 2.554c.802.1 2.001-1.85 2.001-1.85l.314.504c.736-.008 1.703-2.271 1.703-2.271l.443.476c.73-.319.779-2.453.779-2.453l.635.36c.668-.481.49-2.557.49-2.557l.54.216c.156-.704.15-3.283.15-3.283s.566 1.127.56 1.846l.575-.088s-.64 1.983-.098 2.602l.699-.206s-.432 2.09.208 2.566l.538-.367s.431 2.423 1.147 2.598l.421-.419s.728 2.168 1.532 2.251c.547-.597-.348-2.702-.348-2.702l.592.035c.42-.606-.867-2.702-.867-2.702l.646-.086c.161-.781-1.55-2.056-1.55-2.056l.66-.31c-.006-.822-1.802-1.88-1.802-1.88l.489-.316c-.482-.535-2.012-1.465-2.012-1.465Z" fill="#00B38F"/><path fill-rule="evenodd" clip-rule="evenodd" d="M53.691 60.619v.002-.002Zm3.399 5.755.098-.094c.083.044.168.082.255.115v-6.45h3.223c.177-.192.313-.41.357-.656l-.428-.192s1.783-1.175 1.695-2.303l-.323-.133s1.453-1.569 1.075-2.634c-1.062-.391-2.636 1.034-2.636 1.034l-.131-.323c-1.127-.1-2.32 1.668-2.32 1.668l-.189-.43c-1.114.193-1.696 2.157-1.696 2.157l-.34-.352c-1.027.476-1.271 2.315-1.271 2.315l-.356-.248c-.217.18-.344.457-.412.77v.003-.002l-.393.055s.616-1.75-.083-2.64l-.462.16s.372-2.014-.533-2.692l-.363.3s-.262-2.12-1.312-2.541l-.262.228s-.761-1.996-1.884-2.13c-.821.778-.241 2.821-.241 2.821l-.348-.028c-.59.966.465 2.822.465 2.822l-.47-.022c-.32 1.084 1.182 2.477 1.182 2.477l-.465.148c-.03 1.13 1.51 2.166 1.51 2.166l-.38.208c.264 1.101 2.99 1.895 2.99 1.895s-2.41.451-2.722 1.54l.37.224s-1.581.966-1.6 2.099l.457.167s-1.56 1.328-1.285 2.424l.47-.002s-1.136 1.809-.587 2.798l.347-.01s-.67 2.027.115 2.841c1.13-.085 1.97-2.036 1.97-2.036l.253.24c1.067-.374 1.42-2.48 1.42-2.48l.35.312c.933-.636.647-2.666.647-2.666l.455.178c.29-.338.383-.822.387-1.28v-.003.002a.932.932 0 0 0 .142.252l.398-.17s-.129 1.85.784 2.521l.402-.278s.179 2.041 1.233 2.455l.27-.386s.195.468.525.964v-7.038c-.21-.093-.352-.14-.352-.14Z" fill="#1A1919"/><path fill-rule="evenodd" clip-rule="evenodd" d="m56.302 66.552.406-.417c-.591-.413-1.139-1.4-1.139-1.4s1.171.617 1.874.982V62.98c-.78.278-1.82.72-1.82.72s.15-.735.812-1.02l-.315-.492s.678-.07 1.323-.271v-1.974h2.485c.206-.148.361-.314.403-.5l-.553-.346s2.042-1.373 1.91-2.098l-.551-.215s1.688-1.544 1.438-2.312c-.767-.26-2.33 1.41-2.33 1.41l-.207-.554c-.726-.14-2.122 1.886-2.122 1.886l-.34-.556c-.778.166-1.252 2.247-1.252 2.247l-.552-.477c-.749.337-.99 2.409-.99 2.409l-.486-.322c-.293.66-.487 2.332-.487 2.332s-.622-1.01-.585-1.73l-.58.064s.727-1.952.212-2.594l-.708.175s.522-2.069-.096-2.57l-.556.34s-.325-2.439-1.033-2.644l-.438.401s-.634-2.2-1.435-2.315c-.571.572.232 2.713.232 2.713l-.59-.058c-.445.586.75 2.735.75 2.735l-.648.06c-.196.772 1.459 2.119 1.459 2.119l-.672.283c-.03.821 1.718 1.955 1.718 1.955l-.502.293c.46.556 2.304 1.77 2.304 1.77s-1.53.931-2.012 1.466l.489.316s-1.796 1.058-1.802 1.88l.66.31s-1.711 1.275-1.549 2.056l.646.086s-1.288 2.096-.868 2.702l.592-.035s-.895 2.105-.348 2.702c.804-.083 1.534-2.25 1.534-2.25l.419.418c.716-.175 1.146-2.598 1.146-2.598l.54.367c.64-.476.207-2.566.207-2.566l.7.206c.542-.62-.099-2.602-.099-2.602l.575.088c-.006-.719.56-1.846.56-1.846s-.007 2.58.15 3.283l.54-.216s-.177 2.076.49 2.556l.635-.359s.05 2.135.78 2.453l.442-.476s.15.348.375.77v-5.528a8.113 8.113 0 0 0-1.141-.476Z" fill="#00B38F"/><path fill-rule="evenodd" clip-rule="evenodd" d="m22.221 28.976.45.146s-1.564 1.326-1.291 2.424l.47-.003s-1.139 1.807-.591 2.798l.349-.01s-.67 2.014.115 2.828c1.129-.083 1.977-2.043 1.977-2.043l.253.238c1.068-.373 1.424-2.478 1.424-2.478l.348.315c.936-.638.654-2.667.654-2.667l.453.18c.739-.857.201-2.632.201-2.632l.426.08c.49-1.021-1.417-2.282-1.417-2.282s2.434-.503 2.826-1.563l-.353-.252s1.651-.848 1.754-1.974l-.445-.202s1.655-1.207 1.464-2.321l-.47-.033s1.268-1.719.794-2.746l-.347-.015s.813-1.96.09-2.831c-1.13.001-2.12 1.895-2.12 1.895L29 15.57c-1.092.295-1.601 2.37-1.601 2.37l-.325-.34c-.979.566-.845 2.612-.845 2.612l-.49-.107s-.318.65-.164.634l-.432.026s.744-1.7.111-2.638l-.47.125s.518-1.982-.335-2.725l-.382.272s-.105-2.133-1.122-2.63l-.28.209s-.61-2.048-1.72-2.264c-.877.715-.45 2.796-.45 2.796l-.344-.052c-.661.92.255 2.847.255 2.847l-.466-.058c-.4 1.058.996 2.559.996 2.559l-.476.113c-.112 1.126 1.347 2.272 1.347 2.272l-.123.056a1.599 1.599 0 0 0-.609-.448l-.255.35s-.829-1.66-1.953-1.776l-.209.442s-1.187-1.668-2.305-1.49l-.036.467s-1.704-1.285-2.737-.824l-.02.35s-1.962-.844-2.84-.13c-.012 1.131 1.858 2.135 1.858 2.135l-.26.232c.282 1.095 2.35 1.628 2.35 1.628l-.344.321c.556.985 2.603.874 2.603.874l-.217.44c.791.806 2.605.422 2.605.422l-.114.417c.09.053.19.092.297.12l-.033-.009c-.487.027-1.007.148-1.347.487l.211.44s-2.043-.14-2.612.839l.338.325s-2.075.505-2.371 1.596l.257.236s-1.897.986-1.9 2.116c.869.726 2.83-.085 2.83-.085l.014.349c1.027.477 2.748-.788 2.748-.788l.032.47c1.114.193 2.325-1.46 2.325-1.46l.201.444c1.127-.1 1.978-1.748 1.978-1.748l.25.352-.198.235Zm33.113 0-.45.146s1.563 1.326 1.291 2.424l-.47-.003s1.138 1.807.591 2.798l-.349-.01s.67 2.014-.115 2.828c-1.127-.083-1.977-2.043-1.977-2.043l-.253.238c-1.067-.373-1.423-2.478-1.423-2.478l-.35.315c-.934-.638-.652-2.667-.652-2.667l-.454.18c-.738-.857-.202-2.632-.202-2.632l-.425.08c-.49-1.021 1.417-2.282 1.417-2.282s-2.434-.503-2.826-1.563l.353-.252s-1.65-.848-1.754-1.974l.446-.202s-1.657-1.207-1.465-2.321l.47-.033s-1.267-1.719-.794-2.746l.347-.015s-.814-1.96-.09-2.831c1.132.001 2.12 1.895 2.12 1.895l.235-.258c1.092.295 1.601 2.37 1.601 2.37l.325-.34c.98.566.845 2.612.845 2.612l.491-.107s.246.429.163.634l.432.026s-.743-1.7-.112-2.638l.473.125s-.52-1.982.332-2.725l.384.272s.104-2.133 1.122-2.63l.278.209s.611-2.048 1.722-2.264c.875.715.45 2.796.45 2.796l.342-.052c.662.92-.254 2.847-.254 2.847l.465-.058c.4 1.058-.995 2.559-.995 2.559l.475.113c.113 1.126-1.346 2.272-1.346 2.272l.123.056c.18-.201.382-.362.609-.448l.256.35s.827-1.66 1.953-1.776l.207.442s1.188-1.668 2.305-1.49l.036.467s1.705-1.285 2.738-.824l.02.35s1.963-.844 2.84-.13c.011 1.131-1.858 2.135-1.858 2.135l.26.232c-.281 1.095-2.35 1.628-2.35 1.628l.344.321c-.557.985-2.602.874-2.602.874l.217.44c-.792.806-2.607.422-2.607.422l.115.417c-.09.053-.19.092-.297.12l.033-.009c.488.027 1.006.148 1.346.487l-.211.44s2.044-.14 2.614.839l-.34.325s2.076.505 2.373 1.596l-.257.236s1.895.986 1.899 2.116c-.868.726-2.83-.085-2.83-.085l-.015.349c-1.027.477-2.748-.788-2.748-.788l-.03.47c-1.114.193-2.326-1.46-2.326-1.46l-.201.444c-1.126-.1-1.977-1.748-1.977-1.748l-.25.352.197.235Z" fill="#1A1919"/><path fill-rule="evenodd" clip-rule="evenodd" d="M24.069 24.337s1.302-.559 1.349-1.277l.568.132s-.492-2.026.094-2.603l.683.257s-.277-2.115.397-2.541l.512.404s.609-2.384 1.337-2.504l.386.448s.889-2.108 1.698-2.13c.5.636-.549 2.669-.549 2.669l.593.008c.373.637-1.067 2.631-1.067 2.631l.637.134c.105.79-1.698 1.934-1.698 1.934l.636.359c-.068.82-1.936 1.74-1.936 1.74l.464.351c-.522.498-2.144 1.529-2.144 1.529s.946 1.027.95 1.747l-.575-.09s.637 1.984.095 2.6l-.7-.205s.43 2.09-.21 2.565l-.54-.366s-.435 2.42-1.15 2.595l-.42-.42s-.732 2.167-1.537 2.248c-.546-.597.353-2.7.353-2.7l-.592.033c-.419-.606.872-2.702.872-2.702l-.647-.087c-.16-.78 1.554-2.053 1.554-2.053l-.66-.31c.569-.704.898-2.707.898-2.707s-.758 1.5-1.257 2.02l-.35-.466s-.923 1.869-1.743 1.934l-.358-.636s-1.149 1.8-1.938 1.695l-.132-.639s-1.998 1.436-2.633 1.061l-.009-.593s-2.034 1.046-2.669.543c.024-.808 2.134-1.691 2.134-1.691l-.449-.389c.123-.726 2.507-1.33 2.507-1.33l-.402-.513c.428-.673 2.544-.393 2.544-.393l-.257-.683c.578-.585 2.603-.09 2.603-.09l-.132-.567c.72-.047 1.108-.687 1.108-.687s-1.801.104-2.52.049l.138-.566s-2.03.467-2.601-.125l.266-.68s-2.12.252-2.537-.427l.408-.505s-2.374-.637-2.488-1.367l.454-.381s-2.099-.913-2.11-1.721c.64-.495 2.66.578 2.66.578l.017-.593c.64-.365 2.618 1.097 2.618 1.097l.141-.636c.791-.095 1.915 1.72 1.915 1.72l.365-.63c.82.076 1.718 1.956 1.718 1.956l.356-.46c.492.527 1.6 1.736 1.6 1.736s-.181-1.114-.599-1.703l.522-.255s-1.66-1.26-1.57-2.077l.692-.232s-1.552-1.465-1.3-2.222l.652-.01s-1.034-2.231-.548-2.784l.584.102s-.643-2.195-.03-2.723c.789.176 1.26 2.414 1.26 2.414l.466-.368c.691.257.836 2.713.836 2.713l.58-.299c.58.547-.095 2.572-.095 2.572l.72-.122c.466.677-.402 2.572-.402 2.572l.581-.023c.53.94-.967 3.134-.967 3.134Z" fill="#00B38F"/><mask id="b" style="mask-type:alpha" maskUnits="userSpaceOnUse" x="46" y="11" width="90" height="139"><path fill-rule="evenodd" clip-rule="evenodd" d="M46.328 11.743H135.1V150H46.328V11.743Z" fill="#fff"/></mask><g mask="url(#b)" fill-rule="evenodd" clip-rule="evenodd"><path d="M53.486 24.337s-1.3-.559-1.35-1.277l-.565.132s.49-2.026-.096-2.603l-.683.257s.276-2.115-.397-2.541l-.511.404s-.61-2.384-1.337-2.504l-.387.448s-.889-2.108-1.697-2.13c-.5.636.548 2.669.548 2.669l-.593.008c-.373.637 1.067 2.631 1.067 2.631l-.637.134c-.105.79 1.698 1.934 1.698 1.934l-.636.359c.068.82 1.937 1.74 1.937 1.74l-.464.351c.521.498 2.145 1.529 2.145 1.529s-.948 1.027-.952 1.747l.576-.09s-.64 1.984-.096 2.6l.7-.205s-.43 2.09.21 2.565l.54-.366s.435 2.42 1.151 2.595l.419-.42s.732 2.167 1.536 2.248c.546-.597-.352-2.7-.352-2.7l.593.033c.418-.606-.872-2.702-.872-2.702l.645-.087c.16-.78-1.552-2.053-1.552-2.053l.66-.31c-.57-.704-.899-2.707-.899-2.707s.76 1.5 1.257 2.02l.35-.466s.923 1.869 1.744 1.934l.358-.636s1.147 1.8 1.937 1.695l.132-.639s1.998 1.436 2.633 1.061l.01-.593s2.033 1.046 2.668.543c-.025-.808-2.134-1.691-2.134-1.691l.449-.389c-.122-.726-2.508-1.33-2.508-1.33l.403-.513c-.428-.673-2.544-.393-2.544-.393l.257-.683c-.578-.585-2.602-.09-2.602-.09l.13-.567c-.719-.047-1.107-.687-1.107-.687s1.8.104 2.52.049l-.138-.566s2.03.467 2.6-.125l-.265-.68s2.12.252 2.538-.427l-.41-.505s2.377-.637 2.49-1.367l-.454-.381s2.097-.913 2.109-1.721c-.64-.495-2.66.578-2.66.578l-.016-.593c-.64-.365-2.62 1.097-2.62 1.097l-.14-.636c-.79-.095-1.914 1.72-1.914 1.72l-.366-.63c-.82.076-1.718 1.956-1.718 1.956l-.356-.46c-.492.527-1.6 1.736-1.6 1.736s.181-1.114.6-1.703l-.523-.255s1.66-1.26 1.57-2.077l-.692-.232s1.55-1.465 1.299-2.222l-.65-.01s1.032-2.231.547-2.784l-.584.102s.644-2.195.03-2.723c-.79.176-1.26 2.414-1.26 2.414l-.466-.368c-.691.257-.837 2.713-.837 2.713l-.578-.299c-.58.547.094 2.572.094 2.572l-.718-.122c-.467.677.4 2.572.4 2.572l-.582-.023c-.528.94.968 3.134.968 3.134Z" fill="#00B38F"/><path d="M61.945 69.661c.068 4.01.168 9.492.289 15.373.243 11.759.574 25.124.927 31.482.54 9.69 3.548 17.634 9.178 23.165 5.633 5.529 13.946 8.721 25.329 8.726 11.381-.005 19.695-3.197 25.326-8.726 5.632-5.531 8.639-13.475 9.179-23.165.529-9.544 1.009-34.826 1.216-46.855.046-2.677.078-4.696.095-5.746H61.849c.017 1.05.05 3.069.096 5.746ZM97.668 150c-11.668.005-20.462-3.302-26.445-9.182-5.985-5.88-9.101-14.257-9.651-24.215-.71-12.813-1.326-53.464-1.326-53.47l-.012-.81h74.058v.797-.796h.809l-.012.809c-.002.006-.617 40.657-1.327 53.47-.549 9.958-3.667 18.335-9.651 24.215-5.981 5.875-14.765 9.182-26.423 9.182h-.02Z" fill="#000"/></g><path fill-rule="evenodd" clip-rule="evenodd" d="M95.188 127.631c-2.712 1.5-7.005 2.978-10.608 2.549-6.567-.777-10.845-6.27-11.26-13.111 1.475-1.082 3.572-1.859 5.563-2.12 7.986-1.049 12.448 4.486 14.837 9.405l1.468 3.277Z" fill="#00B38F"/><path fill-rule="evenodd" clip-rule="evenodd" d="M84.615 129.885c.417.047.845.072 1.282.071 3.102.005 6.556-1.199 8.905-2.457l-1.351-3.015c-2.177-4.473-6.023-9.371-12.644-9.368-.603 0-1.232.041-1.885.127-1.883.246-3.878.974-5.294 1.97.474 6.656 4.632 11.915 10.987 12.672Zm-.07.591c-6.73-.795-11.11-6.44-11.524-13.389l-.01-.164.131-.096c1.531-1.119 3.663-1.907 5.702-2.176a15.08 15.08 0 0 1 1.963-.131c6.96.001 10.978 5.156 13.185 9.711l1.469 3.279-.273.121.273-.121.11.249-.24.133c-2.426 1.341-6.068 2.659-9.434 2.663-.457-.001-.91-.025-1.353-.079Z" fill="#1A1919"/><path fill-rule="evenodd" clip-rule="evenodd" d="m73.599 117.32 21.642 10.315L73.6 117.32Z" fill="#00B38F"/><path fill-rule="evenodd" clip-rule="evenodd" d="m73.471 117.59.257-.539 21.641 10.314-.256.54-21.642-10.315Z" fill="#1A1919"/><path fill-rule="evenodd" clip-rule="evenodd" d="M101.4 124.354c2.389-4.919 6.853-10.454 14.837-9.405 1.991.261 4.087 1.038 5.564 2.12-.415 6.841-4.693 12.334-11.26 13.111-3.603.429-7.896-1.049-10.608-2.549l1.467-3.277Z" fill="#00B38F"/><path fill-rule="evenodd" clip-rule="evenodd" d="M109.224 129.956c.436 0 .864-.022 1.281-.071 6.353-.758 10.513-6.016 10.986-12.672-1.414-.996-3.409-1.724-5.293-1.97a14.256 14.256 0 0 0-1.885-.127c-6.62-.003-10.465 4.894-12.644 9.365l-1.351 3.018c2.348 1.256 5.802 2.462 8.906 2.457Zm-9.436-2.063-.24-.134 1.58-3.528.272.123-.268-.131c2.203-4.546 6.221-9.702 13.181-9.703.631-.001 1.284.041 1.963.131 2.04.269 4.171 1.057 5.7 2.176l.132.094-.009.166c-.415 6.949-4.794 12.594-11.522 13.39-.445.053-.897.077-1.353.077-3.368-.003-7.01-1.323-9.436-2.661Z" fill="#1A1919"/><path fill-rule="evenodd" clip-rule="evenodd" d="m121.522 117.32-21.643 10.315 21.643-10.315Z" fill="#00B38F"/><path fill-rule="evenodd" clip-rule="evenodd" d="m99.75 127.365 21.644-10.314.257.539-21.644 10.315-.257-.54ZM79.489 107.87l3.315-.178-.883-3.576 3.536.647-.058-3.113.597-.011.074 3.842-3.35-.612.837 3.379-4.036.217-.032-.595Zm32.073.378.838-3.379-3.35.612.075-3.843v.001l.596.011-.059 3.113 3.538-.648-.884 3.577 3.315.179-.032.594-4.037-.217Z" fill="#1A1919"/><path fill-rule="evenodd" clip-rule="evenodd" d="m96.257 102.387-.65 12.799-4.739-4.356-2.26 1.83 6.744 6.374-.538 14.027-3.368 4.041 6.117 5.245 6.116-5.245-3.367-4.041-.538-14.027 6.744-6.374-2.261-1.83-4.74 4.356-.649-12.799" fill="#00B38F"/><path fill-rule="evenodd" clip-rule="evenodd" d="m91.027 137.136 3.492-4.19.53-13.787-6.895-6.518 2.726-2.205 4.461 4.1.617-12.164.597.029-.682 13.435-5.017-4.612-1.795 1.453 6.592 6.233-.545 14.261-3.245 3.895 5.7 4.886 5.698-4.886-3.244-3.895-.547-14.261 6.594-6.233-1.794-1.453-5.02 4.61-.68-13.431.595-.031.62 12.164 4.46-4.1 2.728 2.205-6.897 6.518.529 13.787 3.492 4.19-6.535 5.603-6.535-5.603Z" fill="#1A1919"/><path fill-rule="evenodd" clip-rule="evenodd" d="m95.48 100.78 2.064 4.112 2.035-4.043 10.506-8.164 4.525.025-2.723-3.708-4.425-13.031.89-4.437-4.162 1.965H90.793l-4.161-1.965.89 4.437-4.424 13.031-2.725 3.708 4.526-.025 10.581 8.095Z" fill="#00B38F"/><path fill-rule="evenodd" clip-rule="evenodd" d="m95.716 100.584 1.828 3.642 1.798-3.572 10.64-8.268 4.037.022-2.401-3.266-4.465-13.153.789-3.932-3.685 1.74H90.725l-3.684-1.74.789 3.932-4.465 13.153-2.399 3.266 4.032-.022 10.663 8.158-.181.236.18-.236.056.04Zm-.472.392-10.446-7.992-5.016.026 3.048-4.147 4.384-12.914-.992-4.939 4.636 2.19h13.267l4.635-2.19-.99 4.94 4.383 12.913 3.049 4.147-5.016-.026-10.372 8.06-2.27 4.511-2.3-4.579Z" fill="#1A1919"/><path fill-rule="evenodd" clip-rule="evenodd" d="M97.492 85.064c-2.393-.918-10.169-11.804-4.985-12.841 1.688-.337 3.96.837 4.985.826 1.026-.01 3.296-1.163 4.985-.826 5.184 1.037-2.593 11.923-4.985 12.841Z" fill="#EF3340"/><path fill-rule="evenodd" clip-rule="evenodd" d="M93.168 72.46a3.01 3.01 0 0 0-.603.056c-1.124.247-1.48.864-1.506 1.897-.01 1.628 1.19 4.11 2.632 6.214 1.36 2.015 2.995 3.729 3.8 4.113.807-.384 2.441-2.098 3.8-4.113 1.444-2.105 2.643-4.586 2.634-6.213-.027-1.034-.383-1.65-1.508-1.898a2.969 2.969 0 0 0-.611-.057c-1.489-.01-3.277.86-4.312.89h-.023l-.009-.002c-1.042-.028-2.801-.888-4.272-.888h-.022Zm4.324 12.604.106-.28-.106.28Zm-.108.28c-1.055-.429-2.695-2.215-4.185-4.38-1.47-2.167-2.728-4.662-2.737-6.551-.027-1.201.61-2.233 1.985-2.483a3.75 3.75 0 0 1 .721-.067c1.658.009 3.55.908 4.31.888h.033c.772-.007 2.647-.88 4.295-.89.245 0 .491.021.729.068 1.376.252 2.014 1.283 1.987 2.485-.01 1.888-1.268 4.383-2.737 6.55-1.49 2.163-3.13 3.95-4.187 4.38l-.107.042-.107-.041Z" fill="#1A1919"/><path fill-rule="evenodd" clip-rule="evenodd" d="M96.069 85.911c-1.612 1.992-14.369 6.022-13.754.772.203-1.71 2.02-3.505 2.326-4.483.309-.98-.087-3.496.756-4.998 2.587-4.61 10.538 6.15 10.672 8.71Z" fill="#EF3340"/><path fill-rule="evenodd" clip-rule="evenodd" d="M87.151 76.366c-.599.008-1.076.256-1.493.982-.38.67-.499 1.638-.541 2.562-.048.931-.013 1.793-.19 2.38-.383 1.117-2.148 2.867-2.315 4.43a2.43 2.43 0 0 0-.02.316c.008.73.297 1.154.838 1.474.544.315 1.368.467 2.335.465 1.813.002 4.113-.516 6.07-1.19 1.848-.628 3.417-1.44 3.927-1.976-.128-.973-1.464-3.363-3.169-5.425-1.746-2.162-3.947-4.02-5.404-4.02-.012 0-.025 0-.037.002ZM83.135 89.03c-.696-.388-1.148-1.08-1.139-1.993 0-.125.01-.253.023-.386.238-1.86 2.107-3.7 2.34-4.54.13-.397.12-1.282.162-2.227.048-.954.153-1.995.617-2.827.476-.87 1.214-1.297 2.014-1.287 1.893.03 4.072 2.025 5.904 4.235 1.816 2.243 3.225 4.658 3.312 5.891l-.299.015.299-.015.005.115-.072.088c-.617.74-2.26 1.55-4.271 2.252-2.004.689-4.342 1.22-6.264 1.222-1.026-.002-1.939-.148-2.631-.543Z" fill="#1A1919"/><path fill-rule="evenodd" clip-rule="evenodd" d="M96.696 87.393c1.397 2.147 1.288 15.528-3.515 13.319-1.564-.72-2.71-3.004-3.547-3.599-.837-.593-3.351-.995-4.518-2.261-3.585-3.886 9.105-8.122 11.58-7.46Z" fill="#EF3340"/><path fill-rule="evenodd" clip-rule="evenodd" d="M89.233 89.464c-2.49 1.1-4.504 2.665-4.454 3.956.003.39.156.793.556 1.229.52.568 1.403.981 2.269 1.305.871.336 1.7.568 2.202.918.499.362.976 1.082 1.562 1.806.576.728 1.238 1.444 1.937 1.761.332.152.627.218.888.218.97.018 1.742-.97 2.255-2.586.506-1.592.728-3.7.726-5.627.01-2.13-.291-4.09-.668-4.788a2.743 2.743 0 0 0-.477-.035h-.015c-1.45 0-4.323.73-6.78 1.843Zm3.823 11.519c-.865-.402-1.559-1.188-2.155-1.931-.588-.744-1.102-1.463-1.44-1.695-.335-.248-1.182-.513-2.068-.845-.891-.337-1.849-.76-2.498-1.459-.476-.512-.713-1.074-.712-1.633.052-1.853 2.284-3.338 4.804-4.5 2.544-1.144 5.433-1.892 7.042-1.897.284 0 .531.023.745.082l-.078.288.078-.288.11.03.06.096c.548.871.817 2.895.828 5.213-.002 1.972-.222 4.121-.756 5.809-.527 1.666-1.395 2.982-2.823 3.001h-.006a2.72 2.72 0 0 1-1.131-.271Z" fill="#1A1919"/><path fill-rule="evenodd" clip-rule="evenodd" d="M98.915 85.911c1.611 1.992 14.369 6.022 13.753.772-.201-1.71-2.018-3.505-2.326-4.483-.308-.98.089-3.496-.755-4.998-2.589-4.61-10.54 6.15-10.672 8.71Z" fill="#EF3340"/><path fill-rule="evenodd" clip-rule="evenodd" d="M111.552 88.51c.541-.32.83-.745.838-1.474 0-.1-.006-.207-.019-.317-.166-1.562-1.931-3.312-2.315-4.43-.176-.587-.142-1.448-.19-2.38-.042-.924-.16-1.89-.539-2.561-.419-.726-.896-.974-1.495-.983-1.456-.03-3.681 1.839-5.442 4.02-1.705 2.061-3.041 4.454-3.167 5.426.509.533 2.079 1.348 3.925 1.974 1.956.674 4.256 1.192 6.07 1.19.968.002 1.791-.15 2.334-.465Zm-8.598-.16c-2.011-.703-3.653-1.511-4.27-2.252l-.072-.09.004-.113c.086-1.233 1.495-3.648 3.311-5.89 1.832-2.211 4.012-4.206 5.905-4.236.801-.01 1.538.417 2.015 1.287.463.832.568 1.873.617 2.827.041.945.031 1.83.161 2.228.233.838 2.103 2.679 2.338 4.539.015.133.024.261.024.386.01.912-.441 1.605-1.138 1.993-.693.395-1.605.541-2.631.543-1.92-.002-4.259-.533-6.264-1.222Z" fill="#1A1919"/><path fill-rule="evenodd" clip-rule="evenodd" d="M98.288 87.393c-1.397 2.147-1.288 15.528 3.516 13.319 1.563-.72 2.71-3.004 3.547-3.599.836-.593 3.35-.995 4.517-2.261 3.586-3.886-9.104-8.122-11.58-7.46Z" fill="#EF3340"/><path fill-rule="evenodd" clip-rule="evenodd" d="M97.81 92.444c-.003 1.926.219 4.035.726 5.627.512 1.615 1.285 2.604 2.255 2.586.261 0 .554-.066.887-.217.701-.318 1.361-1.034 1.938-1.761.586-.725 1.063-1.445 1.562-1.808.5-.349 1.331-.581 2.201-.917.867-.324 1.75-.737 2.27-1.305.4-.436.553-.836.554-1.23.051-1.29-1.964-2.855-4.454-3.955-2.466-1.117-5.352-1.848-6.795-1.843-.189 0-.35.013-.476.035-.377.698-.678 2.657-.669 4.788Zm2.98 8.81c-1.43-.019-2.295-1.335-2.823-3.001-.535-1.688-.754-3.837-.756-5.81.012-2.317.28-4.341.828-5.212l.06-.095.11-.03c.213-.06.46-.083.745-.083 1.609.005 4.497.753 7.041 1.897 2.521 1.162 4.754 2.647 4.804 4.5.002.56-.234 1.12-.711 1.633-.648.698-1.606 1.122-2.498 1.46-.886.331-1.732.596-2.067.845-.339.23-.852.95-1.439 1.694-.598.743-1.291 1.529-2.157 1.932-.394.179-.773.27-1.133.27h-.004Z" fill="#1A1919"/><path fill-rule="evenodd" clip-rule="evenodd" d="M100.562 86.234a3 3 0 1 1-5.998 0 3 3 0 0 1 5.998 0Z" fill="#FEDB4A"/><path fill-rule="evenodd" clip-rule="evenodd" d="M94.865 86.234a2.7 2.7 0 0 0 5.398 0 2.7 2.7 0 0 0-5.398 0Zm-.598 0a3.3 3.3 0 0 1 3.296-3.297 3.298 3.298 0 1 1-3.296 3.297Z" fill="#1A1919"/><path fill-rule="evenodd" clip-rule="evenodd" d="M77.32 99.877c7.555-1.064 17.91 6.249 12.593 11.895-4.673 4.968-12.826-3.139-12.593-11.895Z" fill="#EF3340"/><path fill-rule="evenodd" clip-rule="evenodd" d="M77.613 100.244c0 3.31 1.212 6.517 2.954 8.882 1.74 2.37 4.006 3.868 6.033 3.862 1.106-.001 2.156-.425 3.097-1.421.971-1.036 1.375-2.094 1.376-3.146.01-2.038-1.583-4.145-3.943-5.726-2.353-1.58-5.44-2.627-8.279-2.626-.419 0-.832.023-1.237.07v.105Zm8.987 13.341c-4.626-.049-9.56-6.441-9.582-13.341 0-.125 0-.252.004-.377l.01-.25.248-.037c.513-.072 1.04-.107 1.571-.107 2.986.002 6.16 1.083 8.612 2.727 2.445 1.644 4.199 3.861 4.208 6.221.002 1.213-.482 2.433-1.54 3.556-1.03 1.101-2.262 1.608-3.522 1.608h-.01Z" fill="#1A1919"/><path fill-rule="evenodd" clip-rule="evenodd" d="M79.564 108.174c2.712 4.486 7.273 6.852 10.339 3.593 3.374-3.585.431-7.844-4.1-10.2l.016.072.066 3.477-3.444-.629.862 3.478-3.677.198-.062.011Z" fill="#00B38F"/><path fill-rule="evenodd" clip-rule="evenodd" d="M86.588 112.983c1.106-.003 2.156-.425 3.096-1.42.973-1.037 1.376-2.095 1.38-3.148.014-2.314-2.057-4.717-4.94-6.337l.067 3.397-3.35-.611.837 3.378-3.596.194c1.788 2.757 4.29 4.557 6.506 4.547Zm0 .596c-2.668-.012-5.404-2.159-7.28-5.251l-.225-.374.429-.075.079-.013 3.334-.182-.883-3.575 3.537.648-.058-3.083-.145-.665.565.293c3.215 1.678 5.703 4.294 5.719 7.113.002 1.209-.48 2.433-1.54 3.557-1.033 1.098-2.264 1.607-3.526 1.607h-.006Z" fill="#1A1919"/><path fill-rule="evenodd" clip-rule="evenodd" d="M117.8 99.877c-7.555-1.064-17.91 6.249-12.594 11.895 4.674 4.968 12.827-3.139 12.594-11.895Z" fill="#EF3340"/><path fill-rule="evenodd" clip-rule="evenodd" d="M107.989 102.695c-2.36 1.581-3.953 3.688-3.944 5.726.001 1.051.406 2.109 1.379 3.146.941.996 1.99 1.42 3.095 1.421 2.027.006 4.292-1.492 6.033-3.86 1.743-2.367 2.953-5.574 2.953-8.884v-.105c-.404-.047-.818-.07-1.235-.068h-.008c-2.839 0-5.922 1.045-8.273 2.624Zm-2.999 9.282c-1.06-1.123-1.545-2.343-1.542-3.556.009-2.36 1.765-4.577 4.209-6.221 2.451-1.644 5.627-2.725 8.613-2.727.531 0 1.056.035 1.571.107l-.042.297-.298.006.298-.006.042-.297.251.036.006.253c.003.124.004.251.004.375-.024 6.9-4.956 13.292-9.583 13.341h-.008c-1.261 0-2.491-.507-3.521-1.608Z" fill="#1A1919"/><path fill-rule="evenodd" clip-rule="evenodd" d="M115.556 108.174c-2.711 4.486-7.273 6.852-10.337 3.593-3.376-3.585-.433-7.844 4.098-10.2l-.015.072-.067 3.477 3.444-.629-.86 3.478 3.676.198.061.011Z" fill="#00B38F"/><path fill-rule="evenodd" clip-rule="evenodd" d="M104.057 108.415c.001 1.05.405 2.111 1.379 3.148.94.995 1.989 1.417 3.095 1.42 2.218.01 4.719-1.79 6.507-4.547l-3.596-.194.837-3.378-3.349.611.065-3.397c-2.884 1.62-4.953 4.023-4.938 6.337Zm.944 3.557c-1.06-1.124-1.544-2.344-1.542-3.557.017-2.819 2.504-5.438 5.72-7.113l.567-.295-.137.623-.01.044-.059 3.082 3.539-.648-.884 3.576 3.335.182.017.002.061.011-.052.295.052-.295.429.077-.225.372c-1.876 3.092-4.614 5.239-7.281 5.251h-.005c-1.264 0-2.494-.509-3.525-1.607Z" fill="#1A1919"/></svg>